#!OML:ASF E:\emotionWalksFemale\Project 1\Capture day 1\Session 1\Female1.ASF
:FULLY-SPECIFIED
:DEGREES
682
root 8.02236 15.7562 7.38137 179.762 3.2942 -183.831
lowerback 5.30651 1.93353 -4.62809
upperback -4.71243 2.24535 -2.64014
thorax -8.01318 1.37957 -0.480007
lowerneck -9.00202 -1.98165 -6.52945
upperneck 3.11018 -2.38138 7.30057
head 2.83841 -1.05871 3.49967
rclavicle -2.06736e-014 5.56597e-015
rhumerus -47.6972 11.9201 -91.6442
rradius 39.0797
rwrist 11.9862
rhand 4.5572 -55.9021
rfingers 7.12502
rthumb 29.9475 -83.4989
lclavicle -2.06736e-014 5.56597e-015
lhumerus -47.5301 2.23961 76.0278
lradius 36.8037
lwrist -12.5979
lhand -1.11198 -31.7581
lfingers 7.12502
lthumb 24.5249 -3.30856
rfemur -2.07675 -4.42577 15.1442
rtibia 60.0468
rfoot 15.2231 -12.993
rtoes 20.3894
lfemur -3.3506 -24.0459 -27.6925
ltibia 3.78458
lfoot -12.348 26.3602
ltoes -2.5471
683
root 8.0052 15.7589 7.27339 179.521 3.37289 -184.189
lowerback 5.54811 1.88633 -5.02858
upperback -4.61661 2.12883 -2.71638
thorax -8.06266 1.34226 -0.330164
lowerneck -8.787 -1.8985 -6.41456
upperneck 3.01669 -2.28848 7.26586
head 2.75461 -1.01584 3.4678
rclavicle -8.05078e-015 5.96354e-014
rhumerus -48.0194 11.7537 -91.6076
rradius 39.172
rwrist 11.3443
rhand 3.81906 -55.7339
rfingers 7.12502
rthumb 29.2429 -83.4556
lclavicle -8.05078e-015 5.96354e-014
lhumerus -46.6709 1.40757 76.2708
lradius 36.6517
lwrist -12.9076
lhand -2.34772 -32.1598
lfingers 7.12502
lthumb 23.3399 -3.55473
rfemur -3.55765 -4.7795 14.5719
rtibia 62.4445
rfoot 14.3276 -13.6077
rtoes 22.4386
lfemur -0.727439 -23.7154 -28.477
ltibia 3.97569e-015
lfoot -9.97834 26.6722
ltoes -4.92972
684
root 7.99135 15.7569 7.1679 179.299 3.29344 -184.402
lowerback 5.83291 1.78661 -5.32143
upperback -4.52539 1.94551 -2.7296
thorax -8.13613 1.26647 -0.165757
lowerneck -8.62592 -1.81511 -6.31369
upperneck 2.93631 -2.1868 7.18028
head 2.68429 -0.968924 3.4215
rclavicle -1.99779e-014 -1.66979e-014
rhumerus -48.2964 11.5256 -91.516
rradius 38.9624
rwrist 11.2831
rhand 2.50498 -54.8759
rfingers 7.12502
rthumb 27.9874 -82.8093
lclavicle -1.99779e-014 -1.66979e-014
lhumerus -45.7524 0.812097 76.3548
lradius 36.2563
lwrist -13.7146
lhand -3.40837 -32.9147
lfingers 7.12502
lthumb 22.322 -4.18412
rfemur -4.88553 -5.37126 14.2151
rtibia 64.57
rfoot 13.5928 -13.3544
rtoes 22.5643
lfemur -0.0454847 -23.5558 -29.1125
ltibia 5.56597e-015
lfoot -9.81743 26.5662
ltoes -6.55655
685
root 7.97914 15.7562 7.06373 179.246 3.17123 -184.471
lowerback 6.08274 1.66791 -5.50598
upperback -4.54931 1.74894 -2.67295
thorax -8.30962 1.18421 0.0123594
lowerneck -8.49308 -1.69941 -6.38716
upperneck 2.92493 -2.03448 7.2657
head 2.64725 -0.893482 3.47326
rclavicle -2.76808e-014 1.98785e-014
rhumerus -48.484 11.0453 -91.1447
rradius 39.0668
rwrist 10.5852
rhand 2.48041 -55.3967
rfingers 7.12502
rthumb 27.9639 -83.3339
lclavicle -2.76808e-014 1.98785e-014
lhumerus -44.7023 0.732243 76.2017
lradius 35.4812
lwrist -15.1812
lhand -4.03992 -33.5529
lfingers 7.12502
lthumb 21.7156 -4.75093
rfemur -6.40062 -6.04288 14.1003
rtibia 66.3984
rfoot 13.3808 -12.3735
rtoes 20.8936
lfemur 0.458953 -23.4581 -29.4971
ltibia 9.14409e-015
lfoot -9.74594 26.3782
ltoes -8.56338
686
root 7.96898 15.7603 6.95771 179.232 2.94357 -184.357
lowerback 6.12352 1.50222 -5.52178
upperback -4.47904 1.52087 -2.52773
thorax -8.25144 1.07076 0.207827
lowerneck -8.54281 -1.61409 -6.63667
upperneck 2.96427 -1.90212 7.4418
head 2.66912 -0.824707 3.5924
rclavicle 3.72224e-014 -3.61788e-014
rhumerus -48.523 10.6261 -90.6897
rradius 38.9487
rwrist 10.5206
rhand 2.25536 -55.4132
rfingers 7.12502
rthumb 27.7488 -83.3853
lclavicle 3.72224e-014 -3.61788e-014
lhumerus -43.5089 0.776576 76.1332
lradius 34.8569
lwrist -16.6406
lhand -4.32924 -33.5075
lfingers 7.12502
lthumb 21.4378 -4.67367
rfemur -7.9688 -6.68556 14.2833
rtibia 67.9202
rfoot 12.4322 -11.7267
rtoes 18.8904
lfemur 0.966263 -23.4665 -29.6549
ltibia -1.33186e-014
lfoot -9.88617 26.0991
ltoes -9.6085
687
root 7.95542 15.7643 6.84759 179.137 2.54499 -184.153
lowerback 6.12469 1.30847 -5.30288
upperback -4.37668 1.27841 -2.45064
thorax -8.1241 0.933545 0.204677
lowerneck -8.63888 -1.58141 -6.5431
upperneck 3.2034 -1.86632 7.36558
head 2.7621 -0.804417 3.55301
rclavicle -1.39149e-015 2.90226e-014
rhumerus -48.5566 9.92177 -90.2571
rradius 38.5295
rwrist 10.7384
rhand 1.32953 -54.6661
rfingers 7.12502
rthumb 26.8632 -82.7776
lclavicle -1.39149e-015 2.90226e-014
lhumerus -42.4824 0.1875 76.2028
lradius 34.5066
lwrist -17.7195
lhand -4.85667 -33.2399
lfingers 7.12502
lthumb 20.9311 -4.34924
rfemur -9.25688 -7.33847 14.5949
rtibia 69.2083
rfoot 10.842 -11.3531
rtoes 17.3482
lfemur 1.59662 -23.6287 -29.7812
ltibia 3.57812e-015
lfoot -10.0661 25.8979
ltoes -10.0616
688
root 7.9349 15.7662 6.73903 179.109 2.3494 -184.098
lowerback 6.14804 1.19953 -5.07961
upperback -4.40708 1.14931 -2.50001
thorax -8.15709 0.858302 0.0439178
lowerneck -8.63761 -1.55301 -6.23164
upperneck 3.6085 -1.86382 7.17246
head 2.88882 -0.801497 3.42983
rclavicle 7.70291e-015 -3.37934e-014
rhumerus -48.7352 8.99432 -89.8135
rradius 37.9395
rwrist 10.9622
rhand 0.438145 -53.455
rfingers 7.12502
rthumb 26.01 -81.6948
lclavicle 7.70291e-015 -3.37934e-014
lhumerus -41.555 -0.243275 76.0436
lradius 33.984
lwrist -19.2777
lhand -5.57541 -33.3396
lfingers 7.12502
lthumb 20.2405 -4.37417
rfemur -10.5982 -7.77474 14.7182
rtibia 70.3138
rfoot 9.63878 -10.4707
rtoes 14.0482
lfemur 2.12287 -23.6012 -30.0568
ltibia -8.15017e-015
lfoot -10.2861 25.8966
ltoes -10.5788
